<svg width="128" height="128" viewBox="0 0 128 128" xmlns="http://www.w3.org/2000/svg">
    <!-- Background -->
    <rect x="16" y="16" width="96" height="96" rx="16" fill="#f0f0f0" stroke="#ccc" stroke-width="2"/>

    <!-- Screen -->
    <rect x="24" y="24" width="80" height="24" rx="8" fill="#d0ebff"/>
    <text x="64" y="42" font-size="12" text-anchor="middle" fill="#000">5+5=10</text>

    <!-- Buttons Grid -->
    <!-- Row 1 -->
    <rect x="28" y="56" width="16" height="16" rx="4" fill="#e0e0e0"/>
    <rect x="48" y="56" width="16" height="16" rx="4" fill="#e0e0e0"/>
    <rect x="68" y="56" width="16" height="16" rx="4" fill="#e0e0e0"/>
    <rect x="88" y="56" width="16" height="16" rx="4" fill="#ffcc80"/>

    <!-- Row 2 -->
    <rect x="28" y="76" width="16" height="16" rx="4" fill="#e0e0e0"/>
    <rect x="48" y="76" width="16" height="16" rx="4" fill="#e0e0e0"/>
    <rect x="68" y="76" width="16" height="16" rx="4" fill="#e0e0e0"/>
    <rect x="88" y="76" width="16" height="16" rx="4" fill="#ffcc80"/>

    <!-- Row 3 -->
    <rect x="28" y="96" width="16" height="16" rx="4" fill="#e0e0e0"/>
    <rect x="48" y="96" width="16" height="16" rx="4" fill="#e0e0e0"/>
    <rect x="68" y="96" width="16" height="16" rx="4" fill="#e0e0e0"/>
    <rect x="88" y="96" width="16" height="16" rx="4" fill="#ffcc80"/>

    <!-- Bottom Row (C, 0, =, +) -->
    <rect x="28" y="116" width="16" height="16" rx="4" fill="#ff8080"/> <!-- C -->
    <rect x="48" y="116" width="16" height="16" rx="4" fill="#e0e0e0"/> <!-- 0 -->
    <rect x="68" y="116" width="16" height="16" rx="4" fill="#80ff80"/> <!-- = -->
    <rect x="88" y="116" width="16" height="16" rx="4" fill="#ffcc80"/> <!-- + -->

    <!-- Labels (optional - add with text tool) -->
</svg>
